<?xml version="1.0" encoding="UTF-8" standalone="no"?>
<!-- Created with Inkscape (http://www.inkscape.org/) -->

<svg
   width="210mm"
   height="297mm"
   viewBox="0 0 210 297"
   version="1.1"
   id="svg5"
   xml:space="preserve"
   inkscape:version="1.2 (dc2aedaf03, 2022-05-15)"
   sodipodi:docname="main.svg"
   xmlns:inkscape="http://www.inkscape.org/namespaces/inkscape"
   xmlns:sodipodi="http://sodipodi.sourceforge.net/DTD/sodipodi-0.dtd"
   xmlns="http://www.w3.org/2000/svg"
   xmlns:svg="http://www.w3.org/2000/svg"><sodipodi:namedview
     id="namedview7"
     pagecolor="#ffffff"
     bordercolor="#000000"
     borderopacity="0.25"
     inkscape:showpageshadow="2"
     inkscape:pageopacity="0.0"
     inkscape:pagecheckerboard="0"
     inkscape:deskcolor="#d1d1d1"
     inkscape:document-units="mm"
     showgrid="false"
     inkscape:zoom="0.75544332"
     inkscape:cx="465.95157"
     inkscape:cy="459.33294"
     inkscape:window-width="1920"
     inkscape:window-height="986"
     inkscape:window-x="-11"
     inkscape:window-y="-11"
     inkscape:window-maximized="1"
     inkscape:current-layer="layer1" /><defs
     id="defs2"><inkscape:path-effect
       effect="skeletal"
       id="path-effect9399"
       is_visible="true"
       lpeversion="1"
       pattern="M 0,4.9921382 C 0,2.2364779 2.2364779,0 4.9921382,0 c 2.7556604,0 4.9921383,2.2364779 4.9921383,4.9921382 0,2.7556604 -2.2364779,4.9921383 -4.9921383,4.9921383 C 2.2364779,9.9842765 0,7.7477986 0,4.9921382 Z"
       copytype="single_stretched"
       prop_scale="1"
       scale_y_rel="false"
       spacing="0"
       normal_offset="0"
       tang_offset="0"
       prop_units="false"
       vertical_pattern="false"
       hide_knot="false"
       fuse_tolerance="0" /><inkscape:path-effect
       effect="skeletal"
       id="path-effect5027"
       is_visible="true"
       lpeversion="1"
       pattern="M 0,4.9921382 C 0,2.2364779 2.2364779,0 4.9921382,0 c 2.7556604,0 4.9921383,2.2364779 4.9921383,4.9921382 0,2.7556604 -2.2364779,4.9921383 -4.9921383,4.9921383 C 2.2364779,9.9842765 0,7.7477986 0,4.9921382 Z"
       copytype="single_stretched"
       prop_scale="1"
       scale_y_rel="false"
       spacing="0"
       normal_offset="0"
       tang_offset="0"
       prop_units="false"
       vertical_pattern="false"
       hide_knot="false"
       fuse_tolerance="0" /><inkscape:path-effect
       effect="skeletal"
       id="path-effect2079"
       is_visible="true"
       lpeversion="1"
       pattern="M 0,4.9921382 C 0,2.2364779 2.2364779,0 4.9921382,0 c 2.7556604,0 4.9921383,2.2364779 4.9921383,4.9921382 0,2.7556604 -2.2364779,4.9921383 -4.9921383,4.9921383 C 2.2364779,9.9842765 0,7.7477986 0,4.9921382 Z"
       copytype="single_stretched"
       prop_scale="1"
       scale_y_rel="false"
       spacing="0"
       normal_offset="0"
       tang_offset="0"
       prop_units="false"
       vertical_pattern="false"
       hide_knot="false"
       fuse_tolerance="0" /><inkscape:path-effect
       effect="spiro"
       id="path-effect2077"
       is_visible="true"
       lpeversion="1" /><pattern
       id="EMFhbasepattern"
       patternUnits="userSpaceOnUse"
       width="6"
       height="6"
       x="0"
       y="0" /><pattern
       id="EMFhbasepattern-8"
       patternUnits="userSpaceOnUse"
       width="6"
       height="6"
       x="0"
       y="0" /><pattern
       id="EMFhbasepattern-3"
       patternUnits="userSpaceOnUse"
       width="6"
       height="6"
       x="0"
       y="0" /></defs><g
     inkscape:label="Слой 1"
     inkscape:groupmode="layer"
     id="layer1"><path
       style="fill:#000000;fill-opacity:0;stroke-width:0.264583"
       d="m -119.78066,100.69281 c 1.86889,-3.316641 1.37437,-5.273473 3.50236,-3.677482"
       id="path1952" /><path
       style="fill:#000000;fill-opacity:0;stroke-width:0.264583"
       d="m -114.352,96.840211 c 0.58372,-0.642099 1.0361,-1.43468 1.75118,-1.926297 0.3878,-0.266618 1.13989,-0.216458 1.40094,0.175118 0.17939,0.269083 -0.28011,0.898964 0.17512,1.050708 0.8795,0.293169 0.76415,-0.413917 1.0507,-0.700472 0.0666,-0.06662 2.57459,-0.02609 2.97701,0.175118 0.87862,0.439308 1.05071,1.194204 1.05071,2.101416 0,0.189854 0.0826,0.439462 -0.17512,0.525354 -0.16613,0.05537 -0.70047,0 -0.52535,0 0.58372,0 1.1974,-0.184592 1.75117,0 0.87464,0.291544 1.89089,2.380194 2.10142,3.152124 0.16895,0.61947 0.0709,1.28812 0,1.92629 -0.0204,0.18347 0.002,0.47232 -0.17512,0.52536 -0.73776,0.22132 -3.03974,0 -4.02771,0 -0.17512,0 -0.52536,-0.17512 -0.52536,0 0,0.19946 4.25296,1.03833 4.72819,1.75118 0.0648,0.0971 0,0.23349 0,0.35023 0,0.60242 0.0576,1.51968 -0.17512,2.10142 -0.33375,0.83438 -1.96066,3.86977 -2.62677,4.20283 -1.39895,0.69948 -1.94291,0.61014 -3.50235,0.35023 -0.41918,-0.0699 -0.81099,-0.25804 -1.22583,-0.35023 -0.11397,-0.0253 -0.43279,0.0825 -0.35024,0 0.22491,-0.22491 6.09555,-0.25188 6.47937,-0.17512 0.82455,0.16491 -0.0388,1.05594 -0.35024,1.22583 -1.47425,0.80413 -4.14804,1.55547 -5.77889,1.75118 -0.69548,0.0834 -1.40231,0.0437 -2.10142,0 -3.60992,-0.22562 -5.48473,-0.71552 -8.40566,-2.80189 -1.40788,-1.00563 -1.86923,-1.06053 -2.10141,-2.80189 -0.0469,-0.35195 -0.0858,-0.80987 0.17512,-1.05071 1.62463,-1.49965 4.26671,-1.57606 6.30424,-1.57606 0.78768,0 1.77083,-0.22665 2.27653,0.70048 0.19567,0.35871 0.0272,0.81812 0,1.22582 -0.013,0.19492 -0.1675,1.84196 -0.35023,1.9263 -1.37955,0.63671 -5.41113,0.74588 -6.65448,-0.17512 -1.06343,-0.78773 -1.92537,-1.85477 -2.62677,-2.977 -0.17295,-0.27672 0.0369,-4.05533 0.17512,-4.37795 0.16259,-0.37939 0.50212,-0.69984 0.87559,-0.87559 0.6533,-0.30744 1.38921,-0.40666 2.10141,-0.52536 0.47887,-0.0798 1.83666,-0.13654 2.10142,0.52536 0.2786,0.6965 -0.66418,1.31837 -1.05071,1.57606 -1.44517,0.96345 -4.89266,1.04442 -6.47937,0.35023 -0.86856,-0.37999 -1.26163,-1.10879 -1.57605,-1.92629 -0.34435,-0.8953 -0.4344,-1.35083 -0.35024,-2.276535 0.20359,-2.23955 2.78051,-1.62931 4.37795,-1.576062 0.0694,0.0024 3.02911,0.206729 3.15212,0.350234 0.22793,0.26592 0.0626,0.706123 0,1.050708 -0.25819,1.420055 -0.91233,1.107575 -2.45165,1.576065 -2.37463,0.72271 -4.64341,1.29947 -5.25354,-1.751182 -0.0801,-0.400674 0,-0.817216 0,-1.225825 0,-0.709221 -0.11075,-1.467554 0.35024,-2.101416 1.25256,-1.722274 4.84235,-1.400943 6.65448,-1.400943 0.59263,0 2.23973,-0.10596 2.80189,0.175118 0.36918,0.184591 0.54538,0.627935 0.87558,0.87559 0.14768,0.110755 0.37769,0.06436 0.52536,0.175118 0.10442,0.07831 0.0828,0.257939 0.17511,0.350237 0.0923,0.09229 0.24832,0.09358 0.35024,0.175117 0.46512,0.372091 0.95971,0.868714 1.22583,1.400942"
       id="path1954" /><path
       style="fill:#000000;fill-opacity:0;stroke-width:0.264583"
       id="path2007"
       d="m 7.9764206,64.315329 c -0.00782,-0.589905 0.099509,-1.172843 0.2339573,-1.744703 0.1326047,-0.423412 0.2852968,-0.864362 0.5736926,-1.2091 0.2558338,-0.295736 0.6646958,-0.337392 1.0303759,-0.385697 0.4699316,-0.05584 0.9617726,0.02799 1.3920566,0.228283 0.08725,0.04061 0.16876,0.09255 0.253141,0.138829 -5.6984925,-3.114495 -3.3371302,-2.168826 -2.4229099,-1.217713 0.2725285,0.283525 0.4686641,0.61114 0.6615319,0.950341 0.395697,0.752065 0.582653,1.584968 0.751361,2.411079 0.156263,0.987933 0.299755,1.997967 0.19763,3.000314 -0.02322,0.227899 -0.07222,0.45243 -0.108335,0.678643 -0.137033,0.658659 -0.352408,1.292937 -0.6395886,1.90069 -0.096356,0.203917 -0.1886386,0.410935 -0.3066901,0.603107 -0.238151,0.387679 -0.4893631,0.639803 -0.7888806,0.97468 l -0.3835906,0.351357 3.1558139,1.929857 v 0 c 0.11856,-0.133921 0.23712,-0.267843 0.35568,-0.401767 0.261809,-0.332041 0.570288,-0.705226 0.791599,-1.064572 0.489835,-0.795356 0.783179,-1.705266 0.996872,-2.607765 0.06337,-0.388255 0.178044,-1.031248 0.202875,-1.423982 0.02859,-0.452269 -0.01782,-0.790872 -0.03856,-1.239221 -0.0091,-0.196536 -0.0025,-0.393843 -0.01827,-0.589952 -0.013,-0.161301 -0.04535,-0.320456 -0.06802,-0.480685 -0.137033,-0.850514 -0.299846,-1.706689 -0.648779,-2.499712 -0.196615,-0.356666 24.220712,6.492837 23.518352,5.769695 C 35.965375,67.664193 9.666747,59.703959 8.4578004,58.960641 7.8441615,58.735369 7.3167647,58.658791 6.6645591,58.762635 6.1963905,58.848817 5.7252184,58.972788 5.4267692,59.37438 5.1487167,59.797724 4.9781996,60.279255 4.863661,60.771156 c -0.1016347,0.47318 -0.054804,0.234209 -0.1401527,0.716983 -0.1099402,0.531199 -0.04826,0.176499 -0.1757167,0.655423 -1.526e-4,5.3e-4 -0.062144,0.296982 -0.069891,0.334026 l 3.4985216,1.837741 z"
       sodipodi:nodetypes="scccscsccscsscccscscssccczcccccsccs" /><path
       style="fill:#000000;fill-opacity:0;stroke-width:0.264583"
       id="path2009"
       d="m 6.2664892,59.83616 c 1.4755334,0.905727 0.8037761,0.497981 3.9876318,2.299015 0.155391,0.0879 0.31969,0.159118 0.477398,0.242787 0.17889,0.09491 0.703453,0.391369 0.889538,0.496059 l -2.90304,-2.341805 v 0 C 7.7499159,60.007544 8.9136732,60.637202 7.8563368,60.068769 7.6919414,59.980387 7.2028192,59.707964 7.3638023,59.802418 c 4.3226887,2.536256 3.5516747,2.073685 2.5073697,1.444154 z"
       sodipodi:nodetypes="cssccssscc" /><path
       style="fill:#000000;fill-opacity:0;stroke-width:0.264583"
       id="path2013"
       d="m 7.4622368,57.368368 c 0.5060516,2.082824 0.6908086,4.227134 0.8002458,6.362493 0.108554,2.118128 -0.038995,0.787451 0.2031177,2.545562 1.2849828,0.484664 2.4818077,1.430261 3.8549477,1.453988 0.599011,0.01035 0.776871,-0.912227 1.166621,-1.367218 0.440096,-0.513763 0.878824,-1.028724 1.322915,-1.539039 0.362816,-0.416917 1.726595,-2.140069 2.4574,-2.354699 0.305658,-0.08977 0.605738,0.197543 0.908607,0.296315 -0.788347,-0.237503 -1.704038,-1.203397 -2.365042,-0.712507 -0.580509,0.431112 0.396352,1.397915 0.474094,2.116804 0.180133,1.665721 0.03177,3.64985 -0.240806,5.298181 -0.12105,0.732022 -0.05797,1.573318 -0.500458,2.168898 -0.257399,0.346456 -0.85046,0.147846 -1.27569,0.221771 -0.414408,-0.261895 -1.141867,-0.306054 -1.243223,-0.785688 -0.07583,-0.358855 0.989506,-0.161269 0.965769,-0.527278 -0.06121,-0.943761 -0.844228,-1.697098 -1.167667,-2.585818 -0.29193,-0.80214 -0.494253,-1.636149 -0.672673,-2.470906 -0.398684,-1.865289 -0.554111,-1.398736 -0.01995,-2.322161 -1.01841,-0.05364 -2.2821281,-0.826003 -3.0552297,-0.160909 -0.6352979,0.546542 0.2617745,1.656329 0.3479958,2.489922 0.3077491,2.975335 0.1142582,1.957105 0.2033268,4.506423 0.010419,0.298249 -0.1734201,0.727496 0.075508,0.892109 1.1093371,0.733584 2.4423331,1.053621 3.6634991,1.58043 0.231735,-0.324471 0.397019,-0.70871 0.695205,-0.973415 0.161242,-0.143137 0.411774,-0.128026 0.617661,-0.19204 -1.072761,-0.487751 -2.051769,-1.296035 -3.218283,-1.463257 -0.351045,-0.05032 -0.279351,0.668378 -0.521903,0.927092 -0.734798,0.78376 -0.844282,0.640877 -1.7021863,0.635381 1.1034153,0.34657 2.1570083,1.127345 3.3102443,1.03971 0.502382,-0.03818 0.414337,-0.923351 0.691892,-1.343838 0.298809,-0.452686 0.636851,-0.885576 1.027849,-1.26152 0.203312,-0.195482 0.465302,-0.330144 0.729697,-0.428349 0.0681,-0.02529 0.134521,0.05491 0.201781,0.08237 l -3.575487,-1.786149 c 5.524097,2.975946 2.439073,2.754267 3.587948,1.549461 0.158694,-0.166421 0.385312,-0.27346 0.505381,-0.46958 0.31432,-0.513408 -0.06013,-0.303766 -0.09651,-0.667999 -0.01283,-0.128461 0.05091,-0.253132 0.07636,-0.379696 0.421405,-0.593145 0.195754,-0.3415 0.656849,-0.775028 0.05156,-0.04848 0.111619,-0.08928 0.15472,-0.145415 0.03015,-0.03927 0.04061,-0.09031 0.06092,-0.135461 l -3.525102,-1.799627 v 0 c 0.07275,0.01474 0.13623,0.0082 0.08308,0.15371 -0.128057,0.350549 -0.456726,0.641045 -0.689067,0.899919 -0.03411,0.07418 -0.45328,0.768792 -0.224642,0.962816 0.116354,0.09874 0.506176,-0.166743 0.457273,-0.0222 -0.0784,0.231741 -0.396883,0.28615 -0.595085,0.429557 -1.664777,1.204526 -0.812076,0.321659 2.783724,2.393757 -1.023212,-0.755666 -2.045049,-1.513197 -3.069635,-2.267001 -0.05538,-0.04074 0.173885,0.06006 0.161925,0.12776 -0.04438,0.251235 -0.160361,0.492667 -0.308255,0.700553 -0.321871,0.452432 -0.724778,0.841359 -1.08767,1.261605 -0.353577,0.409458 -1.2693087,0.727921 -1.0617354,1.227508 0.4897353,1.178692 1.7999524,1.810191 2.6999294,2.715286 0.202264,-0.09009 0.419197,-0.152649 0.606792,-0.270272 0.105512,-0.06616 2.10083,-1.529194 2.026914,-1.637136 -2.74795,-4.012967 -2.393003,-2.909906 -3.641516,-1.808355 -0.262841,0.231899 -0.543171,0.44319 -0.814757,0.664786 0.807474,0.641512 1.489549,1.484877 2.422422,1.924532 0.363941,0.171521 -0.464539,-0.67255 -0.582256,-1.057275 -0.200389,-0.654915 -0.298266,-1.34076 -0.360188,-2.02284 -0.07756,-0.85439 -0.07473,-1.715355 -0.05705,-2.573076 0.01534,-0.744257 0.527835,-1.582891 0.156004,-2.227789 -0.706359,-1.225102 -2.0709464,-1.926256 -3.1064197,-2.889382 0.1616575,0.257215 0.380656,0.486318 0.4849725,0.771644 0.2446014,0.669034 0.3575277,1.379225 0.5519451,2.064525 0.2411641,0.850078 0.4707301,1.704414 0.7546761,2.541172 0.293668,0.865405 0.409189,1.845533 0.976926,2.561659 2.475144,3.122081 2.833121,3.067876 5.422072,4.177842 0.300635,-0.259871 0.753758,-0.410876 0.901904,-0.779613 0.286494,-0.713081 0.232887,-1.51942 0.328144,-2.281976 0.05459,-0.437041 0.514649,-4.750167 0.54537,-5.206185 0.04505,-0.668662 0.442785,-1.468122 0.04838,-2.009957 -0.873676,-1.200256 -2.338938,-1.828951 -3.508406,-2.743428 -0.256037,0.04534 -0.553939,-0.01143 -0.768112,0.136028 -0.401106,0.276143 -0.671284,0.706138 -0.989981,1.074343 -1.003256,1.159103 -1.443139,1.905392 -2.643875,2.905683 -0.455206,0.379217 -1.5861244,0.404956 -1.4778719,0.987449 0.1715992,0.923359 1.3502509,1.305743 2.0253759,1.958615 -0.123123,-0.373107 1.072382,3.104058 0.992729,2.719322 -0.112924,-0.545449 -1.657708,-6.663881 -1.686315,-7.140162 -0.05702,-0.949407 -0.112542,-2.316729 -0.03303,-3.290801 0.02445,-0.299481 0.105241,-0.591669 0.157862,-0.887505 l -3.4629084,-1.76444 z"
       sodipodi:nodetypes="sscsssscsssscsssscsssscscsscssssccssscssccsscssscssssscscscssssscsssscssssccssscsssccs" /><path
       style="fill:#000000;fill-opacity:0;stroke-width:0.264583"
       id="path2015"
       d="m 8.3569425,63.410342 c 1.1827523,1.976605 1.0390799,1.65394 2.1138165,3.810876 0.316619,0.635437 0.584316,1.295255 0.918807,1.921468 0.214086,0.400799 0.363099,0.879192 0.724373,1.154787 1.114881,0.850479 2.40887,1.436119 3.613305,2.154179 l -2.701177,-2.17551 v 0 c 0.657994,0.421646 1.192587,1.25226 1.973984,1.264936 0.550896,0.0089 -0.784313,-0.786159 -1.080963,-1.25045 -0.387188,-0.605993 -0.652864,-1.281938 -0.954236,-1.934869 -0.90202,-1.954249 -0.73353,-1.597048 -1.268698,-3.408015 z"
       sodipodi:nodetypes="csssccscsscc" /><path
       style="fill:#000000;fill-opacity:0;stroke-width:0.264583"
       id="path2017"
       d="M 8.9197354,69.448121 9.4130658,69.087856 6.3841637,67.091392 v 0 c -0.226486,0.07139 -0.4529719,0.142786 -0.6794579,0.214181 z"
       sodipodi:nodetypes="cccscc" /><text
       xml:space="preserve"
       style="font-style:normal;font-variant:normal;font-weight:400;font-size:11.4102px;line-height:125%;font-family:Algerian;text-align:start;letter-spacing:0px;word-spacing:0px;text-anchor:start;fill:#000000;fill-opacity:1;stroke:none;stroke-width:0.608548"
       x="-0.077999413"
       y="990.93134"
       id="text13898"
       transform="scale(0.98136525,1.0189886)"><tspan
         sodipodi:role="line"
         x="-0.077999413"
         y="990.93134"
         id="tspan13896"
         style="stroke-width:0.608548"><tspan
           dx="0"
           dy="0"
           style="font-style:normal;font-variant:normal;font-weight:400;font-size:11.4102px;font-family:Algerian;fill:#000000;stroke-width:0.608548"
           id="tspan13892">Bkycnov</tspan><tspan
           dx="-0.25414702"
           dy="0"
           style="font-style:normal;font-variant:normal;font-weight:400;font-size:11.4102px;font-family:Algerian;fill:#000000;stroke-width:0.608548"
           id="tspan13894"> </tspan></tspan></text><text
       xml:space="preserve"
       style="font-style:normal;font-variant:normal;font-weight:400;font-size:66.0718px;line-height:125%;font-family:Algerian;text-align:start;letter-spacing:0px;word-spacing:0px;text-anchor:start;fill:#000000;fill-opacity:1;stroke:none;stroke-width:3.52383"
       x="24.199062"
       y="96.957405"
       id="text17569"
       transform="scale(0.57345217,1.7438246)"><tspan
         sodipodi:role="line"
         x="24.199062"
         y="96.957405"
         id="tspan17567"
         style="stroke-width:3.52383"><tspan
           dx="0"
           dy="0"
           style="font-style:normal;font-variant:normal;font-weight:400;font-size:66.0718px;font-family:Algerian;fill:#000000;stroke-width:3.52383"
           id="tspan17563">Bkycnov</tspan><tspan
           dx="-1.4716522"
           dy="0"
           style="font-style:normal;font-variant:normal;font-weight:400;font-size:66.0718px;font-family:Algerian;fill:#000000;stroke-width:3.52383"
           id="tspan17565"> </tspan></tspan></text></g></svg>
